<svg width="128" height="124" viewBox="0 0 128 124" fill="none" xmlns="http://www.w3.org/2000/svg">
<rect x="1" y="1" width="126" height="122" fill="#EDF0F7"/>
<path fill-rule="evenodd" clip-rule="evenodd" d="M53.9999 55.1666C53.9999 52.8655 55.8654 51 58.1666 51C60.4678 51 62.3333 52.8655 62.3333 55.1666C62.3333 57.4678 60.4678 59.3333 58.1666 59.3333C55.8654 59.3333 53.9999 57.4678 53.9999 55.1666ZM58.1666 54.3333C57.7063 54.3333 57.3333 54.7064 57.3333 55.1666C57.3333 55.6269 57.7063 56 58.1666 56C58.6268 56 58.9999 55.6269 58.9999 55.1666C58.9999 54.7064 58.6268 54.3333 58.1666 54.3333Z" fill="#2D3648"/>
<path fill-rule="evenodd" clip-rule="evenodd" d="M47.3333 49.3333C47.3333 46.5719 49.5718 44.3333 52.3333 44.3333H75.6666C78.428 44.3333 80.6666 46.5719 80.6666 49.3333V72.6666C80.6666 75.4281 78.428 77.6666 75.6666 77.6666H52.3333C49.5718 77.6666 47.3333 75.4281 47.3333 72.6666V49.3333ZM52.3333 47.6666C51.4128 47.6666 50.6666 48.4128 50.6666 49.3333V72.6666C50.6666 73.3814 51.1165 73.991 51.7485 74.2278L69.4882 56.4881C70.1391 55.8373 71.1943 55.8373 71.8452 56.4881L77.3333 61.9762V49.3333C77.3333 48.4128 76.5871 47.6666 75.6666 47.6666H52.3333ZM77.3333 66.6902L70.6667 60.0237L56.3571 74.3333H75.6666C76.5871 74.3333 77.3333 73.5871 77.3333 72.6666V66.6902Z" fill="#2D3648"/>
<rect x="1" y="1" width="126" height="122" stroke="#2D3648" stroke-width="2"/>
</svg>
