<svg width="268" height="87" viewBox="0 0 268 87" fill="none" xmlns="http://www.w3.org/2000/svg">
<path d="M15.1 43.1C15.1 27.6 27.6 15.1 43.1 15.1H103.7V0H43.1C19.3 0 0 19.3 0 43.1C0 66.9 19.3 86.2 43.1 86.2H128.2V71.1H43.1C27.6 71.1 15.1 58.5 15.1 43.1Z" fill="#243F92"/>
<path d="M267.7 71.1H158.3V86.2H267.7V71.1Z" fill="#243F92"/>
<path d="M109.5 0V15.1H134V86.2H152.5V15.1H267.7V0H109.5Z" fill="#243F92"/>
<path d="M183.5 31.4V23.8H167.8H163.4H158.9V66H163.4H167.8H183.5V58.4001H167.8V48.4001H181.6V40.8H167.8V31.4H183.5Z" fill="#243F92"/>
<path d="M258.9 40.8H240.2V23.8H231.3V66H240.2V48.4001H258.9V66H267.7V23.8H258.9V40.8Z" fill="#243F92"/>
<path d="M54.1999 23.8H53.6999H45.2999H44.8999V66H53.6999V35.8L74.9999 66H83.8999V23.8H74.9999V53.4001L54.1999 23.8Z" fill="#243F92"/>
<path d="M115 31.4C118.8 31.4 122.3 32.7001 124.9 34.9001V25.8C121.9 24.5 118.6 23.8 115 23.8C102.3 23.8 92 33.3001 92 44.9001C92 56.6001 102.2 66 115 66C118.5 66 121.9 65.3 124.9 64V54.9001C122.3 57.1001 118.8 58.4001 115 58.4001C106.9 58.4001 102.3 52.4001 102.3 44.9001C102.3 37.5001 106.8 31.4 115 31.4Z" fill="#243F92"/>
<path d="M211.6 31.4C215.4 31.4 218.9 32.7001 221.5 34.9001V25.8C218.5 24.5 215.2 23.8 211.6 23.8C198.9 23.8 188.6 33.3001 188.6 44.9001C188.6 56.6001 198.9 66 211.6 66C215.1 66 218.5 65.3 221.5 64V54.9001C218.9 57.1001 215.4 58.4001 211.6 58.4001C203.5 58.4001 198.9 52.4001 198.9 44.9001C198.9 37.5001 203.5 31.4 211.6 31.4Z" fill="#243F92"/>
<path d="M180.6 80.3001L178.2 73.2001H174.1V83.3001H176.8V78.9001C176.8 78.6001 176.8 78.2001 176.8 77.8001C176.8 77.4001 176.8 77.1001 176.7 76.8001C176.7 76.5001 176.7 76.2001 176.6 76.0001H176.7L179 83.2001H181.9L184.2 76.0001H184.3C184.3 76.2001 184.3 76.4001 184.3 76.8001C184.3 77.1001 184.3 77.5001 184.3 77.8001C184.3 78.2001 184.3 78.5001 184.3 78.8001V83.2001H187.1V73.1001H183L180.6 80.3001Z" fill="#F1F5F9"/>
<path d="M193.5 75.3C192.7 75.3 192 75.4 191.4 75.5C190.8 75.6 190.2 75.8 189.7 76L190.6 77.8C191 77.6 191.5 77.5 191.9 77.4C192.3 77.3 192.7 77.2 193.1 77.2C193.4 77.2 193.7 77.3 193.9 77.4C194.1 77.5 194.2 77.8 194.2 78.1V78.2H192.7C191.5 78.2 190.5 78.5 189.9 78.9C189.3 79.3 188.9 79.9 188.9 80.8C188.9 81.4 189 81.8 189.2 82.2C189.4 82.6 189.7 82.8 190.1 83C190.5 83.2 191 83.3 191.5 83.3C192 83.3 192.4 83.3 192.7 83.2C193 83.1 193.3 83 193.6 82.8C193.9 82.6 194.1 82.4 194.4 82.1H194.5L195.1 83.1H197.2V78C197.2 77.1 196.9 76.4 196.3 75.9C195.5 75.5 194.6 75.3 193.5 75.3ZM194 80.3C194 80.6 193.9 80.9 193.6 81.1C193.3 81.3 193 81.4 192.7 81.4C192.4 81.4 192.2 81.3 192.1 81.2C191.9 81.1 191.9 80.9 191.9 80.6C191.9 80.3 192 80.1 192.2 79.9C192.4 79.7 192.8 79.7 193.4 79.6H194.1V80.3H194Z" fill="#F1F5F9"/>
<path d="M204.3 76.4C204 76.1 203.7 75.8 203.3 75.6C202.9 75.4 202.4 75.3 201.8 75.3C201.2 75.3 200.6 75.5 200.1 75.8C199.6 76.1 199.2 76.6 199 77.2C198.7 77.8 198.6 78.5 198.6 79.4C198.6 80.7 198.9 81.7 199.5 82.4C200.1 83.1 200.8 83.4 201.8 83.4C202.4 83.4 202.9 83.3 203.3 83.1C203.7 82.9 204 82.6 204.2 82.3H204.3C204.3 82.5 204.2 82.7 204.2 82.9C204.2 83.1 204.2 83.3 204.2 83.5V85H207.2V75.4H204.6L204.3 76.4ZM204.4 79.6C204.4 80 204.4 80.3 204.3 80.5C204.2 80.7 204.1 80.9 203.9 81.1C203.7 81.2 203.5 81.3 203.1 81.3C202.7 81.3 202.3 81.2 202.1 80.9C201.9 80.6 201.8 80.1 201.8 79.4C201.8 78.7 201.9 78.2 202.1 77.9C202.3 77.6 202.6 77.4 203 77.4C203.5 77.4 203.9 77.6 204.1 77.9C204.3 78.2 204.4 78.7 204.4 79.3V79.6Z" fill="#F1F5F9"/>
<path d="M214.7 78.8C214.7 79.3 214.7 79.8 214.6 80.1C214.5 80.5 214.4 80.7 214.2 80.9C214 81.1 213.7 81.2 213.3 81.2C212.9 81.2 212.7 81.1 212.5 80.8C212.3 80.5 212.3 80.2 212.3 79.6V75.3H209.3V80.4C209.3 81.1 209.4 81.6 209.7 82C210 82.4 210.3 82.7 210.8 82.9C211.3 83.1 211.8 83.2 212.4 83.2C212.8 83.2 213.1 83.2 213.4 83.1C213.7 83 214 82.9 214.3 82.7C214.6 82.5 214.8 82.3 215 82.1H215.2L215.6 83.1H217.9V75.3H214.9V78.8H214.7Z" fill="#F1F5F9"/>
<path d="M222.5 72.5C222.2 72.3 221.8 72.3 221.4 72.3C221 72.3 220.6 72.4 220.3 72.5C220 72.7 219.8 73 219.8 73.5C219.8 74 220 74.3 220.3 74.4C220.6 74.6 221 74.6 221.4 74.6C221.8 74.6 222.2 74.5 222.5 74.4C222.8 74.2 223 73.9 223 73.5C223 73 222.8 72.7 222.5 72.5Z" fill="#F1F5F9"/>
<path d="M222.9 75.4H219.9V83.2H222.9V75.4Z" fill="#F1F5F9"/>
<path d="M230.5 75.3C230.1 75.3 229.7 75.3 229.4 75.4C229.1 75.5 228.8 75.6 228.5 75.8C228.2 76 228 76.2 227.8 76.4H227.7L227.3 75.4H225V83.2H228V79.8C228 79 228.1 78.4 228.3 78C228.5 77.6 228.9 77.4 229.4 77.4C229.8 77.4 230 77.5 230.2 77.8C230.4 78.1 230.5 78.5 230.5 79V83.3H233.5V78.2C233.5 77.2 233.2 76.5 232.6 76C232.1 75.5 231.4 75.3 230.5 75.3Z" fill="#F1F5F9"/>
<path d="M239.9 75.3C239.1 75.3 238.4 75.4 237.8 75.5C237.2 75.6 236.6 75.8 236.1 76L237 77.8C237.4 77.6 237.9 77.5 238.3 77.4C238.7 77.3 239.1 77.2 239.5 77.2C239.8 77.2 240.1 77.3 240.3 77.4C240.5 77.5 240.6 77.8 240.6 78.1V78.2H239.1C237.9 78.2 236.9 78.5 236.3 78.9C235.7 79.3 235.3 79.9 235.3 80.8C235.3 81.4 235.4 81.8 235.6 82.2C235.8 82.6 236.1 82.8 236.5 83C236.9 83.2 237.4 83.3 237.9 83.3C238.4 83.3 238.8 83.3 239.1 83.2C239.4 83.1 239.7 83 240 82.8C240.3 82.6 240.5 82.4 240.8 82.1H240.9L241.5 83.1H243.6V78C243.6 77.1 243.3 76.4 242.7 75.9C241.8 75.5 241 75.3 239.9 75.3ZM240.4 80.3C240.4 80.6 240.3 80.9 240 81.1C239.7 81.3 239.4 81.4 239.1 81.4C238.8 81.4 238.6 81.3 238.5 81.2C238.3 81.1 238.3 80.9 238.3 80.6C238.3 80.3 238.4 80.1 238.6 79.9C238.8 79.7 239.2 79.7 239.8 79.6H240.5V80.3H240.4Z" fill="#F1F5F9"/>
<path d="M251.7 79.7001C251.5 79.4001 251.3 79.1001 251 78.9001C250.7 78.7001 250.2 78.5001 249.7 78.3001C249.2 78.1001 248.8 78.0001 248.6 77.9001C248.4 77.8001 248.2 77.7001 248.1 77.6001C248 77.5001 248 77.4001 248 77.3001C248 77.2001 248.1 77.1001 248.2 77.1001C248.3 77.0001 248.5 77.0001 248.7 77.0001C249 77.0001 249.3 77.1001 249.8 77.2001C250.3 77.3001 250.7 77.4001 251.1 77.6001L251.9 75.9001C251.4 75.7001 250.8 75.5001 250.3 75.4001C249.8 75.3001 249.2 75.2001 248.7 75.2001C247.6 75.2001 246.7 75.4001 246.1 75.8001C245.4 76.2001 245.1 76.8001 245.1 77.5001C245.1 77.9001 245.2 78.3001 245.3 78.6001C245.5 78.9001 245.7 79.1001 246 79.4001C246.3 79.6001 246.7 79.8001 247.2 80.0001C247.7 80.2001 248.1 80.3001 248.3 80.4001C248.6 80.5001 248.8 80.6001 248.9 80.7001C249 80.8001 249.1 80.9001 249.1 81.0001C249.1 81.1001 249 81.2001 248.9 81.3001C248.7 81.4001 248.5 81.4001 248.2 81.4001C247.9 81.4001 247.4 81.4001 246.9 81.3001C246.3 81.2001 245.8 81.0001 245.2 80.8001V83.0001C245.7 83.2001 246.2 83.3001 246.7 83.3001C247.2 83.4001 247.7 83.4001 248.4 83.4001C249.3 83.4001 250 83.3001 250.5 83.1001C251 82.9001 251.4 82.6001 251.7 82.2001C251.9 81.8001 252.1 81.4001 252.1 80.9001C252 80.4001 251.9 80.0001 251.7 79.7001Z" fill="#F1F5F9"/>
<path d="M196.6 73.1001H194.5L193.3 74.8001H194.7L196.6 73.1001Z" fill="#F1F5F9"/>
</svg>
